<svg width="16" height="16" viewBox="0 0 16 16" fill="none" xmlns="http://www.w3.org/2000/svg">
<path d="M14.6666 8.666V13.3333C14.6666 13.5101 14.5963 13.6797 14.4713 13.8047C14.3463 13.9298 14.1767 14 13.9999 14H8.66659V8.666H14.6666ZM7.33325 8.666V14H1.99992C1.82311 14 1.65354 13.9298 1.52851 13.8047C1.40349 13.6797 1.33325 13.5101 1.33325 13.3333V8.666H7.33325ZM7.33325 2V7.33267H1.33325V2.66667C1.33325 2.48986 1.40349 2.32029 1.52851 2.19526C1.65354 2.07024 1.82311 2 1.99992 2H7.33325ZM13.9999 2C14.1767 2 14.3463 2.07024 14.4713 2.19526C14.5963 2.32029 14.6666 2.48986 14.6666 2.66667V7.33267H8.66659V2H13.9999Z" fill="white"/>
</svg>
