<svg width="16" height="16" viewBox="0 0 16 16" fill="none" xmlns="http://www.w3.org/2000/svg">
<path d="M14.6667 8.666V13.3333C14.6667 13.5101 14.5965 13.6797 14.4714 13.8047C14.3464 13.9298 14.1769 14 14 14H8.66671V8.666H14.6667ZM7.33337 8.666V14H2.00004C1.82323 14 1.65366 13.9298 1.52864 13.8047C1.40361 13.6797 1.33337 13.5101 1.33337 13.3333V8.666H7.33337ZM7.33337 2V7.33267H1.33337V2.66667C1.33337 2.48986 1.40361 2.32029 1.52864 2.19526C1.65366 2.07024 1.82323 2 2.00004 2H7.33337ZM14 2C14.1769 2 14.3464 2.07024 14.4714 2.19526C14.5965 2.32029 14.6667 2.48986 14.6667 2.66667V7.33267H8.66671V2H14Z" fill="#1E2A30"/>
</svg>
